<svg width="20" height="22" viewBox="0 0 20 22" fill="none" xmlns="http://www.w3.org/2000/svg">
<path d="M6.66675 19.25H16.6667C17.1088 19.25 17.5327 19.0568 17.8453 18.713C18.1578 18.3692 18.3334 17.9029 18.3334 17.4167V15.5833H8.33341V17.4167C8.33341 17.9029 8.15782 18.3692 7.84526 18.713C7.5327 19.0568 7.10878 19.25 6.66675 19.25ZM6.66675 19.25C6.22472 19.25 5.8008 19.0568 5.48824 18.713C5.17568 18.3692 5.00008 17.9029 5.00008 17.4167V4.58333C5.00008 4.0971 4.82449 3.63079 4.51193 3.28697C4.19937 2.94315 3.77544 2.75 3.33341 2.75C2.89139 2.75 2.46746 2.94315 2.1549 3.28697C1.84234 3.63079 1.66675 4.0971 1.66675 4.58333V7.33333H5.00008" stroke="#323232" stroke-width="1.6" stroke-linecap="round" stroke-linejoin="round"/>
<path d="M15.8333 15.5833V4.58333C15.8333 4.0971 15.6577 3.63079 15.3451 3.28697C15.0325 2.94315 14.6086 2.75 14.1666 2.75H3.33325" stroke="#323232" stroke-width="1.6" stroke-linecap="round" stroke-linejoin="round"/>
<path d="M12.4999 7.33331H8.33325" stroke="#323232" stroke-width="1.6" stroke-linecap="round" stroke-linejoin="round"/>
<path d="M12.4999 11H8.33325" stroke="#323232" stroke-width="1.6" stroke-linecap="round" stroke-linejoin="round"/>
</svg>
